<mxfile host="app.diagrams.net" modified="2022-11-19T23:00:52.184Z" agent="5.0 (Windows NT 10.0; Win64; x64) AppleWebKit/537.36 (KHTML, like Gecko) Chrome/107.0.0.0 Safari/537.36" etag="RTww-YAN0H8gWvlFzCbi" version="20.5.3" type="github">
  <diagram id="C5RBs43oDa-KdzZeNtuy" name="Page-1">
    <mxGraphModel dx="1157" dy="563" grid="1" gridSize="10" guides="1" tooltips="1" connect="1" arrows="1" fold="1" page="1" pageScale="1" pageWidth="827" pageHeight="1169" math="0" shadow="0">
      <root>
        <mxCell id="WIyWlLk6GJQsqaUBKTNV-0" />
        <mxCell id="WIyWlLk6GJQsqaUBKTNV-1" parent="WIyWlLk6GJQsqaUBKTNV-0" />
        <mxCell id="XmdDfnnAerPxbzYNmSJt-3" style="edgeStyle=orthogonalEdgeStyle;rounded=0;orthogonalLoop=1;jettySize=auto;html=1;entryX=0.5;entryY=0;entryDx=0;entryDy=0;" parent="WIyWlLk6GJQsqaUBKTNV-1" source="XmdDfnnAerPxbzYNmSJt-0" target="XmdDfnnAerPxbzYNmSJt-1" edge="1">
          <mxGeometry relative="1" as="geometry" />
        </mxCell>
        <mxCell id="XmdDfnnAerPxbzYNmSJt-0" value="Extraction Engine" style="rounded=1;whiteSpace=wrap;html=1;" parent="WIyWlLk6GJQsqaUBKTNV-1" vertex="1">
          <mxGeometry x="360" y="130" width="120" height="60" as="geometry" />
        </mxCell>
        <mxCell id="XmdDfnnAerPxbzYNmSJt-4" style="edgeStyle=orthogonalEdgeStyle;rounded=0;orthogonalLoop=1;jettySize=auto;html=1;entryX=0.5;entryY=0;entryDx=0;entryDy=0;" parent="WIyWlLk6GJQsqaUBKTNV-1" source="XmdDfnnAerPxbzYNmSJt-1" target="XmdDfnnAerPxbzYNmSJt-2" edge="1">
          <mxGeometry relative="1" as="geometry" />
        </mxCell>
        <mxCell id="XmdDfnnAerPxbzYNmSJt-7" style="edgeStyle=orthogonalEdgeStyle;rounded=0;orthogonalLoop=1;jettySize=auto;html=1;entryX=0;entryY=0.5;entryDx=0;entryDy=0;exitX=1.008;exitY=0.383;exitDx=0;exitDy=0;exitPerimeter=0;" parent="WIyWlLk6GJQsqaUBKTNV-1" source="XmdDfnnAerPxbzYNmSJt-1" target="XmdDfnnAerPxbzYNmSJt-5" edge="1">
          <mxGeometry relative="1" as="geometry">
            <mxPoint x="490" y="280" as="sourcePoint" />
          </mxGeometry>
        </mxCell>
        <mxCell id="XmdDfnnAerPxbzYNmSJt-1" value="Clean data" style="rounded=1;whiteSpace=wrap;html=1;" parent="WIyWlLk6GJQsqaUBKTNV-1" vertex="1">
          <mxGeometry x="360" y="260" width="120" height="60" as="geometry" />
        </mxCell>
        <mxCell id="xGl7Bzw4Ua5EMEcxjFzb-8" style="edgeStyle=orthogonalEdgeStyle;rounded=0;orthogonalLoop=1;jettySize=auto;html=1;startArrow=none;startFill=0;" edge="1" parent="WIyWlLk6GJQsqaUBKTNV-1" source="XmdDfnnAerPxbzYNmSJt-2" target="xGl7Bzw4Ua5EMEcxjFzb-7">
          <mxGeometry relative="1" as="geometry" />
        </mxCell>
        <mxCell id="XmdDfnnAerPxbzYNmSJt-2" value="Convert&amp;nbsp; HashMap to Mongodb Document" style="rounded=1;whiteSpace=wrap;html=1;" parent="WIyWlLk6GJQsqaUBKTNV-1" vertex="1">
          <mxGeometry x="360" y="410" width="120" height="60" as="geometry" />
        </mxCell>
        <mxCell id="XmdDfnnAerPxbzYNmSJt-10" style="edgeStyle=orthogonalEdgeStyle;rounded=0;orthogonalLoop=1;jettySize=auto;html=1;entryX=0.5;entryY=0;entryDx=0;entryDy=0;" parent="WIyWlLk6GJQsqaUBKTNV-1" source="XmdDfnnAerPxbzYNmSJt-5" target="XmdDfnnAerPxbzYNmSJt-6" edge="1">
          <mxGeometry relative="1" as="geometry" />
        </mxCell>
        <mxCell id="XmdDfnnAerPxbzYNmSJt-5" value="Gate-1&lt;br&gt;Extracts the list of articles for a given keyword" style="rounded=1;whiteSpace=wrap;html=1;" parent="WIyWlLk6GJQsqaUBKTNV-1" vertex="1">
          <mxGeometry x="682" y="190" width="120" height="60" as="geometry" />
        </mxCell>
        <mxCell id="xGl7Bzw4Ua5EMEcxjFzb-9" style="edgeStyle=orthogonalEdgeStyle;rounded=0;orthogonalLoop=1;jettySize=auto;html=1;entryX=1;entryY=0.5;entryDx=0;entryDy=0;startArrow=none;startFill=0;" edge="1" parent="WIyWlLk6GJQsqaUBKTNV-1" source="XmdDfnnAerPxbzYNmSJt-6" target="xGl7Bzw4Ua5EMEcxjFzb-0">
          <mxGeometry relative="1" as="geometry" />
        </mxCell>
        <mxCell id="XmdDfnnAerPxbzYNmSJt-6" value="Gate 2&lt;br&gt;Extracts the key-value pairs in each news article and transforms it into a list of POJO objects&amp;lt;NewsArticle&amp;gt;" style="rounded=1;whiteSpace=wrap;html=1;" parent="WIyWlLk6GJQsqaUBKTNV-1" vertex="1">
          <mxGeometry x="657" y="340" width="170" height="100" as="geometry" />
        </mxCell>
        <mxCell id="xGl7Bzw4Ua5EMEcxjFzb-11" style="edgeStyle=orthogonalEdgeStyle;rounded=0;orthogonalLoop=1;jettySize=auto;html=1;entryX=1;entryY=0.75;entryDx=0;entryDy=0;startArrow=none;startFill=0;exitX=0.5;exitY=0;exitDx=0;exitDy=0;" edge="1" parent="WIyWlLk6GJQsqaUBKTNV-1" source="xGl7Bzw4Ua5EMEcxjFzb-0" target="XmdDfnnAerPxbzYNmSJt-1">
          <mxGeometry relative="1" as="geometry">
            <Array as="points">
              <mxPoint x="550" y="305" />
            </Array>
          </mxGeometry>
        </mxCell>
        <mxCell id="xGl7Bzw4Ua5EMEcxjFzb-0" value="Remove html tags, URLs and unwanted characters" style="rounded=1;whiteSpace=wrap;html=1;" vertex="1" parent="WIyWlLk6GJQsqaUBKTNV-1">
          <mxGeometry x="490" y="360" width="120" height="60" as="geometry" />
        </mxCell>
        <mxCell id="xGl7Bzw4Ua5EMEcxjFzb-7" value="Store into MongoDB Collection" style="rounded=1;whiteSpace=wrap;html=1;" vertex="1" parent="WIyWlLk6GJQsqaUBKTNV-1">
          <mxGeometry x="360" y="510" width="120" height="60" as="geometry" />
        </mxCell>
      </root>
    </mxGraphModel>
  </diagram>
</mxfile>
